<svg width="37" height="24" viewBox="0 0 37 24" fill="none" xmlns="http://www.w3.org/2000/svg">
<g clip-path="url(#clip0_3197_7192)">
<path d="M31.3676 1.52372L31.2918 1.47958C29.6245 0.511199 27.7319 0 25.8169 0H25.7819C23.8544 0.00658762 21.9526 0.530303 20.2813 1.51647C19.8353 1.77931 19.4058 2.07576 18.9987 2.40053C16.5876 4.27075 14.9967 7.09816 14.6561 10.2148C14.6548 10.22 14.6542 10.226 14.6542 10.2312C14.6542 10.2339 14.6542 10.2352 14.6542 10.2378C14.6542 10.2391 14.6542 10.2411 14.6542 10.2424C14.6364 10.4025 14.6219 10.5711 14.6107 10.7431C14.3426 13.2042 13.112 15.4453 11.2424 16.9631C9.06192 15.2292 7.75033 12.5343 7.75033 9.65876V1.15613C7.75033 0.562582 7.28129 0.0810277 6.70224 0.0810277H1.04809C0.469038 0.0810277 0 0.562582 0 1.15613V12.1634C0 15.7688 1.6726 19.1436 4.44401 21.2767C4.55138 21.3623 4.66074 21.4453 4.77009 21.5257C5.06654 21.7437 5.37747 21.9486 5.69631 22.137C7.40843 23.1462 9.31818 23.6548 11.2319 23.6548C12.8913 23.6548 14.5534 23.2727 16.0903 22.5046C16.2958 22.4025 16.5026 22.2905 16.7101 22.1706L16.7819 22.1285C19.8735 20.332 21.9526 17.1001 22.3452 13.4796C22.3452 13.4776 22.3452 13.4769 22.3452 13.475C22.3452 13.473 22.3452 13.471 22.3452 13.469C22.3452 13.4677 22.3452 13.4664 22.3452 13.4651C22.3636 13.3011 22.3781 13.1344 22.3893 12.9572C22.3893 12.9552 22.3893 12.9539 22.3893 12.9519C22.6634 10.4644 23.9196 8.20422 25.8241 6.68906C27.9644 8.4249 29.2497 11.0942 29.2497 13.9401V22.4414C29.2497 23.0356 29.7187 23.5165 30.2978 23.5165H35.9493C36.5283 23.5165 36.9974 23.0356 36.9974 22.4414V11.4348C36.9974 7.33992 34.8393 3.5415 31.365 1.52306L31.3676 1.52372ZM2.09684 12.1634V2.23123H5.65217V9.6581C5.65217 12.9295 7.02899 16.0119 9.35441 18.1469C7.99934 18.7905 6.52042 19.0751 5.02372 18.9783C3.18314 17.2484 2.09618 14.7806 2.09618 12.1627L2.09684 12.1634ZM23.9401 5.50527C21.9229 7.35837 20.6067 9.93281 20.305 12.7365C20.303 12.7549 20.3011 12.7734 20.2991 12.7918C20.2879 12.8959 20.278 13.0033 20.2701 13.1133C20.2701 13.1166 20.2701 13.1199 20.2694 13.1238C20.2694 13.1238 20.2694 13.1252 20.2694 13.1258C20.2661 13.1706 20.2628 13.2154 20.2602 13.2609C20.0198 15.4354 19.0296 17.4361 17.5092 18.9177C16.9816 19.4328 16.3906 19.8847 15.7444 20.2596L15.6726 20.3017C15.5086 20.3972 15.3419 20.4868 15.1746 20.5705C12.9032 21.7049 10.2991 21.8017 7.98221 20.8808C8.00198 20.8762 8.02174 20.8715 8.0415 20.8669C9.08893 20.6232 10.1014 20.222 11.0534 19.6686L11.1304 19.6238C11.1713 19.6001 11.2121 19.5764 11.253 19.5514C11.9335 19.1443 12.5639 18.6667 13.1364 18.1298C15.1094 16.2833 16.3972 13.7391 16.6943 10.971C16.7042 10.8834 16.7128 10.7931 16.7207 10.7016C16.7213 10.6904 16.7227 10.6779 16.7233 10.6667C16.7279 10.6074 16.7325 10.5468 16.7365 10.4862C16.7372 10.4736 16.7385 10.4611 16.7391 10.448C16.9848 8.21607 18.0217 6.16667 19.6107 4.67391C20.1074 4.20685 20.6581 3.79447 21.2543 3.4473L21.3261 3.40514C21.4901 3.30962 21.6568 3.22003 21.8248 3.13636C22.0863 3.00527 22.3524 2.88867 22.6219 2.78524C24.6917 1.99275 26.9657 2.01186 29.0158 2.82609C27.948 3.06851 26.9144 3.47497 25.9453 4.03821L25.8689 4.083C25.859 4.08893 25.8478 4.09552 25.8379 4.10145C25.1522 4.50198 24.5171 4.97365 23.9394 5.50527H23.9401ZM34.9032 21.3669H31.3478V13.9407C31.3478 10.7055 30.0007 7.65547 27.7227 5.52306C29.0922 4.88867 30.5863 4.61858 32.0962 4.73584C33.863 6.4585 34.9032 8.87549 34.9032 11.4361V21.3676V21.3669Z" fill="#F0F0EF"/>
</g>
<defs>
<clipPath id="clip0_3197_7192">
<rect width="37" height="23.6542" fill="white"/>
</clipPath>
</defs>
</svg>
